<svg id="Layer" height="512" viewBox="0 0 24 24" width="512" xmlns="http://www.w3.org/2000/svg"><path id="taxi" d="m20.049 10.433-.087-.683h1.038a.75.75 0 0 0 0-1.5h-1.23l-.111-.863c-.243-1.47-.519-3.137-3.7-3.137h-7.917c-3.182 0-3.458 1.667-3.706 3.165l-.106.835h-1.23a.75.75 0 0 0 0 1.5h1.038l-.088.683a2.525 2.525 0 0 0 -1.062.681 2.786 2.786 0 0 0 -.611 2.227l.39 3.124a3.494 3.494 0 0 0 2.083 2.962v1.573a.75.75 0 0 0 1.5 0v-1.26c.047 0 .089.01.137.01h11.226c.046 0 .087-.009.132-.01v1.26a.75.75 0 0 0 1.5 0v-1.571a3.494 3.494 0 0 0 2.088-2.964l.39-3.124a2.786 2.786 0 0 0 -.611-2.227 2.523 2.523 0 0 0 -1.063-.681zm-12.007-4.683h7.916c1.91 0 1.988.474 2.217 1.855l.35 2.733a32.46 32.46 0 0 1 -6.525.662 32.45 32.45 0 0 1 -6.525-.662l.345-2.7c.234-1.414.312-1.888 2.222-1.888zm11.8 10.529a2.021 2.021 0 0 1 -2.231 1.971h-11.224a2.021 2.021 0 0 1 -2.231-1.971l-.39-3.124a1.314 1.314 0 0 1 .247-1.049 1.215 1.215 0 0 1 .909-.355 32.846 32.846 0 0 0 7.078.749 32.846 32.846 0 0 0 7.078-.749 1.215 1.215 0 0 1 .909.355 1.314 1.314 0 0 1 .247 1.049zm-10.092-13.279a.75.75 0 0 1 .75-.75h3a.75.75 0 0 1 0 1.5h-3a.75.75 0 0 1 -.75-.75zm7.75 12a.75.75 0 0 1 -.75.75h-1.5a.75.75 0 0 1 0-1.5h1.5a.75.75 0 0 1 .75.75zm-8 0a.75.75 0 0 1 -.75.75h-1.5a.75.75 0 0 1 0-1.5h1.5a.75.75 0 0 1 .75.75z" fill="rgb(0,0,0)"/></svg>