<svg id="Layer" height="512" viewBox="0 0 24 24" width="512" xmlns="http://www.w3.org/2000/svg"><path id="sliders-vertical-alt" d="m17 2.25a3.75 3.75 0 1 0 3.75 3.75 3.754 3.754 0 0 0 -3.75-3.75zm0 6a2.25 2.25 0 1 1 2.25-2.25 2.252 2.252 0 0 1 -2.25 2.25zm-10 6a3.75 3.75 0 1 0 3.75 3.75 3.754 3.754 0 0 0 -3.75-3.75zm0 6a2.25 2.25 0 1 1 2.25-2.25 2.252 2.252 0 0 1 -2.25 2.25zm10-6a.75.75 0 0 0 -.75.75v6a.75.75 0 0 0 1.5 0v-6a.75.75 0 0 0 -.75-.75zm-10-4.5a.75.75 0 0 0 .75-.75v-6a.75.75 0 0 0 -1.5 0v6a.75.75 0 0 0 .75.75z" fill="rgb(0,0,0)"/></svg>