<svg id="Layer" height="512" viewBox="0 0 24 24" width="512" xmlns="http://www.w3.org/2000/svg"><path id="volume-high-slash" d="m13 15.724v3.606a1.669 1.669 0 0 1 -2.75 1.27l-1.292-1.1a.3.3 0 0 1 -.018-.441l3.548-3.548a.3.3 0 0 1 .512.213zm5.455-5.684a.75.75 0 0 0 -1.434.44 5.217 5.217 0 0 1 -1.313 5.23.75.75 0 0 0 1.061 1.061 6.714 6.714 0 0 0 1.686-6.731zm2.981-3.181a.75.75 0 0 0 -1.315.722 9.273 9.273 0 0 1 -1.583 10.959.75.75 0 1 0 1.062 1.06 10.781 10.781 0 0 0 1.836-12.741zm.094-4.389a.749.749 0 0 0 -1.06 0l-7.47 7.469v-5.269a1.669 1.669 0 0 0 -2.75-1.27l-3.69 3.13a2.026 2.026 0 0 1 -1.29.47h-1.77a1.5 1.5 0 0 0 -1.5 1.5v7a1.5 1.5 0 0 0 1.5 1.5h1.77a1.978 1.978 0 0 1 .577.092l-3.377 3.378a.75.75 0 1 0 1.06 1.06l18-18a.749.749 0 0 0 0-1.06z" fill="rgb(0,0,0)"/></svg>