<svg xmlns="http://www.w3.org/2000/svg" viewBox="0 0 480 200" preserveAspectRatio="xMidYMid slice" aria-hidden="true">
  <defs>
    <linearGradient id="hmSky" x1="0%" y1="0%" x2="100%" y2="100%">
      <stop offset="0%" stop-color="#1a0d12"/>
      <stop offset="45%" stop-color="#12081c"/>
      <stop offset="100%" stop-color="#0a1018"/>
    </linearGradient>
    <radialGradient id="hmGlowA" cx="22%" cy="18%" r="55%">
      <stop offset="0%" stop-color="#f59e0b" stop-opacity="0.35"/>
      <stop offset="55%" stop-color="#f59e0b" stop-opacity="0"/>
    </radialGradient>
    <radialGradient id="hmGlowV" cx="92%" cy="88%" r="50%">
      <stop offset="0%" stop-color="#7c3aed" stop-opacity="0.32"/>
      <stop offset="60%" stop-color="#7c3aed" stop-opacity="0"/>
    </radialGradient>
    <linearGradient id="hmWood" x1="0%" y1="0%" x2="0%" y2="100%">
      <stop offset="0%" stop-color="#5c4030"/>
      <stop offset="100%" stop-color="#2d1f18"/>
    </linearGradient>
    <filter id="hmSoft" x="-20%" y="-20%" width="140%" height="140%">
      <feGaussianBlur in="SourceGraphic" stdDeviation="1.2" result="b"/>
      <feMerge>
        <feMergeNode in="b"/>
        <feMergeNode in="SourceGraphic"/>
      </feMerge>
    </filter>
  </defs>
  <rect width="480" height="200" fill="url(#hmSky)"/>
  <rect width="480" height="200" fill="url(#hmGlowA)"/>
  <rect width="480" height="200" fill="url(#hmGlowV)"/>
  <!-- Echo rings -->
  <g opacity="0.14" stroke="#f8fafc" stroke-width="1.25" fill="none">
    <path d="M392 100c0-28 22-50 50-50"/>
    <path d="M372 100c0-39 31-70 70-70"/>
    <path d="M352 100c0-50 40-90 90-90"/>
  </g>
  <!-- Ground -->
  <path d="M0 168c80-8 160-12 240-10s160 6 240 18V200H0Z" fill="#05080c" opacity="0.55"/>
  <!-- Gallows + figure -->
  <g transform="translate(118 24) scale(1.42)" filter="url(#hmSoft)">
    <path stroke="url(#hmWood)" stroke-width="3.5" stroke-linecap="round" fill="none" d="M18 78h62M28 78V26M28 26h36M64 26v14"/>
    <path stroke="#64748b" stroke-width="2" stroke-linecap="round" opacity="0.85" d="M64 40v6" stroke-dasharray="2 3"/>
    <circle cx="64" cy="50" r="7" stroke="#fbbf24" stroke-width="2.6" fill="none"/>
    <path stroke="#fbbf24" stroke-width="2.6" stroke-linecap="round" fill="none" d="M64 57v16M56 68l16 10M56 82l10 10M72 82l-10 10"/>
  </g>
</svg>
